<?xml version="1.0" ?><svg data-name="Layer 1" id="Layer_1" viewBox="0 0 272 272" xmlns="http://www.w3.org/2000/svg"><defs><style>.cls-1{fill:#ffd54f;}.cls-2{fill:#fff176;}.cls-3{fill:#e91d62;}.cls-4{fill:#f06292;}</style></defs><title/><ellipse class="cls-1" cx="136" cy="148" rx="128" ry="36"/><path class="cls-2" d="M195.4,128.2a58.22,58.22,0,0,0,.6-8.2c.15-29.11-26.85-54.91-60-56-33.15,1.09-60.15,26.89-60,56a58.24,58.24,0,0,0,.6,8.2A194.16,194.16,0,0,0,195.4,128.2Z"/><path class="cls-3" d="M76,120a58.24,58.24,0,0,0,.6,8.2,194.16,194.16,0,0,0,118.79,0,58.22,58.22,0,0,0,.6-8.2A194.16,194.16,0,0,1,76,120Z"/><path class="cls-4" d="M159,139.73l4.15-1.16a6.8,6.8,0,0,0,4.89-7.55h0a6.8,6.8,0,0,0-6.88-5.79l-4.31.1a5.13,5.13,0,0,0-5,5.89l.65,4.33A5.13,5.13,0,0,0,159,139.73Z"/><path class="cls-4" d="M179.25,136.71l-4.31.1a6.8,6.8,0,0,1-6.88-5.79h0a6.8,6.8,0,0,1,4.89-7.55l4.15-1.16a5.13,5.13,0,0,1,6.46,4.18l.65,4.33A5.13,5.13,0,0,1,179.25,136.71Z"/><circle class="cls-3" cx="168.06" cy="131.02" r="4" transform="translate(-17.51 26.26) rotate(-8.49)"/></svg>