<svg width="38" height="38" viewBox="0 0 38 38" fill="none" xmlns="http://www.w3.org/2000/svg">
<path d="M17.4167 6.33337H6.33335C5.4935 6.33337 4.68805 6.667 4.09418 7.26086C3.50032 7.85473 3.16669 8.66018 3.16669 9.50003V31.6667C3.16669 32.5066 3.50032 33.312 4.09418 33.9059C4.68805 34.4997 5.4935 34.8334 6.33335 34.8334H28.5C29.3399 34.8334 30.1453 34.4997 30.7392 33.9059C31.3331 33.312 31.6667 32.5066 31.6667 31.6667V20.5834M29.2917 3.95837C29.9216 3.32848 30.7759 2.97461 31.6667 2.97461C32.5575 2.97461 33.4118 3.32848 34.0417 3.95837C34.6716 4.58826 35.0254 5.44257 35.0254 6.33337C35.0254 7.22416 34.6716 8.07848 34.0417 8.70837L19 23.75L12.6667 25.3334L14.25 19L29.2917 3.95837Z" stroke="#1E1E1E" stroke-width="2" stroke-linecap="round" stroke-linejoin="round"/>
</svg>
