<svg width="23" height="20" viewBox="0 0 23 20" fill="none" xmlns="http://www.w3.org/2000/svg">
<path d="M13.002 2.42676C14.8647 0.73307 17.278 0.458772 19.0996 1.55371V1.55469C20.9546 2.6708 21.9572 5.01999 21.4834 7.31738L21.4326 7.53906V7.54004C20.9444 9.50671 19.8382 11.1423 18.458 12.7227L17.8506 13.3975C15.8957 15.5122 13.6309 17.2977 11.2539 19.0283C8.20074 16.7958 5.32529 14.5207 3.12109 11.5801L2.67676 10.9648L2.30469 10.4072C1.5356 9.19582 1.00963 7.95924 0.915039 6.60352L0.901367 6.28809C0.858732 4.12604 2.0417 2.18801 3.76465 1.35742L3.93262 1.28027C5.62903 0.54781 7.72044 0.902238 9.32715 2.27441L9.6416 2.56152L10.6641 3.55371L11.3145 4.18359L11.9404 3.53027C12.2561 3.20101 12.4912 2.93051 12.7422 2.67676L13.002 2.42676Z" stroke="#FF268F" stroke-width="1.8"/>
</svg>
