<?xml version="1.0" ?><!DOCTYPE svg  PUBLIC '-//W3C//DTD SVG 1.1//EN'  'http://www.w3.org/Graphics/SVG/1.1/DTD/svg11.dtd'><svg height="8.4666mm" style="shape-rendering:geometricPrecision; text-rendering:geometricPrecision; image-rendering:optimizeQuality; fill-rule:evenodd; clip-rule:evenodd" version="1.1" viewBox="0 0 847 847" width="8.4666mm" xml:space="preserve" xmlns="http://www.w3.org/2000/svg" xmlns:xlink="http://www.w3.org/1999/xlink"><defs><style type="text/css">
   <![CDATA[
    .fil3 {fill:#C42733;fill-rule:nonzero}
    .fil1 {fill:#E62129;fill-rule:nonzero}
    .fil2 {fill:#EEEEEF;fill-rule:nonzero}
    .fil0 {fill:#FFE100;fill-rule:nonzero}
   ]]>
  </style></defs><g id="Layer_x0020_1"><g id="_1122818144"><path class="fil0" d="M534 275c-11,-25 -25,-50 -39,-74 -15,-25 -62,7 -79,16 -26,13 -51,27 -77,40 -7,4 -13,8 -19,14 11,26 23,51 36,76 10,16 16,26 36,19 14,-4 28,-10 42,-15 26,-12 52,-25 77,-40 5,-3 27,-12 27,-19 -1,-6 -2,-12 -4,-17z"/><path class="fil1" d="M381 654c-6,-10 -11,-20 -16,-30 -3,-7 7,-13 11,-6 5,11 10,21 15,31 4,7 -7,12 -10,5zm-32 -74c-7,-8 -13,-17 -17,-27 -2,-8 9,-13 11,-6 4,9 9,18 15,25 5,6 -4,14 -9,8zm184 -259c-20,13 -40,25 -62,35 -21,10 -43,19 -65,27 -10,3 -26,11 -37,7 -14,-5 -20,-15 -27,-27 -10,-18 -19,-36 -27,-54 -5,-10 -21,-34 -14,-45 7,-12 17,-19 29,-25 41,-21 81,-47 124,-62 27,-10 48,-7 61,21 9,17 20,32 28,50 7,13 20,36 13,52 -4,11 -14,15 -23,21zm-225 190c-3,-9 -7,-19 -11,-28 -2,-8 9,-13 11,-6 4,10 7,19 11,29 3,7 -8,13 -11,5zm-35 -81c-5,-12 -11,-23 -16,-34 -4,-7 7,-12 10,-5 6,11 12,22 17,33 4,7 -7,13 -11,6zm-37 -69c-4,-8 -8,-16 -12,-25 -4,-6 7,-12 10,-5 4,8 8,16 13,24 3,7 -8,13 -11,6zm-30 -65c-5,-10 -10,-21 -15,-31 -4,-7 7,-12 10,-5 6,10 11,20 16,30 3,7 -8,13 -11,6zm196 376c5,-26 36,-38 59,-50 38,-19 75,-39 113,-58 38,-19 77,-38 117,-55 11,-4 23,-10 35,-12 0,0 1,0 2,0 -53,-109 -110,-216 -162,-325 -8,-16 -16,-33 -24,-50 -6,-13 -12,-33 -26,-41 -18,-10 -38,6 -55,13 -55,23 -109,48 -163,72 -21,8 -42,16 -60,29 -9,6 -19,13 -24,22 -5,8 -6,17 -11,25 -10,16 -31,3 -44,6 -22,4 -68,21 -59,48 21,62 57,117 88,175 30,58 57,118 84,178 11,22 20,46 30,68 5,-7 12,-14 21,-19 23,-13 53,-32 79,-26z"/><path class="fil2" d="M613 627c-48,21 -96,43 -143,65 -7,3 -13,-8 -6,-11 50,-23 100,-45 150,-68 26,-12 53,-23 77,-38 18,-12 36,-25 56,-32 0,-3 -1,-7 -2,-11 -98,47 -195,93 -292,140 -7,3 -12,-8 -5,-11 95,-46 191,-92 287,-137 -1,-2 -3,-4 -4,-5 -1,-1 -1,-2 -2,-2 -3,1 -7,2 -10,3 -12,4 -25,9 -36,15 -35,15 -70,32 -104,49 -33,17 -66,34 -98,51 -20,10 -64,24 -58,51 1,8 -9,16 -16,10 -19,-14 -48,6 -67,16 -17,9 -26,18 -22,34 7,11 19,27 28,24 9,-3 17,-7 26,-10 11,-3 25,-7 34,-16 7,-8 3,-17 8,-26 4,-5 8,-9 15,-9 5,0 8,4 12,5 10,2 19,1 28,-3 57,-23 112,-54 164,-84 27,-16 54,-32 80,-48 8,-5 17,-10 24,-17 2,-1 4,-2 5,-4 -21,10 -39,24 -59,35 -23,13 -47,23 -70,34z"/><path class="fil3" d="M737 562c-7,7 -16,12 -24,17 -26,16 -53,32 -80,48 -52,30 -107,61 -164,84 -9,4 -18,5 -28,3 -4,-1 -7,-5 -12,-5 -7,0 -11,4 -15,9 -5,9 -1,18 -8,26 -9,9 -23,13 -34,16 -9,3 -17,7 -26,10 -9,3 -21,-13 -28,-24 -4,-16 5,-25 22,-34 19,-10 48,-30 67,-16 7,6 17,-2 16,-10 -6,-27 38,-41 58,-51 32,-17 65,-34 98,-51 34,-17 69,-34 104,-49 11,-6 24,-11 36,-15 3,-1 7,-2 10,-3 1,0 1,1 2,2 1,1 3,3 4,5 -96,45 -192,91 -287,137 -7,3 -2,14 5,11 97,-47 194,-93 292,-140 1,4 2,8 2,11 -20,7 -38,20 -56,32 -24,15 -51,26 -77,38 -50,23 -100,45 -150,68 -7,3 -1,14 6,11 47,-22 95,-44 143,-65 23,-11 47,-21 70,-34 20,-11 38,-25 59,-35 -1,2 -3,3 -5,4zm-414 136c-9,5 -16,12 -21,19 -10,-22 -19,-46 -30,-68 -27,-60 -54,-120 -84,-178 -31,-58 -67,-113 -88,-175 -9,-27 37,-44 59,-48 13,-3 34,10 44,-6 5,-8 6,-17 11,-25 5,-9 15,-16 24,-22 18,-13 39,-21 60,-29 54,-24 108,-49 163,-72 17,-7 37,-23 55,-13 14,8 20,28 26,41 8,17 16,34 24,50 52,109 109,216 162,325 -1,0 -2,0 -2,0 -12,2 -24,8 -35,12 -40,17 -79,36 -117,55 -38,19 -75,39 -113,58 -23,12 -54,24 -59,50 -26,-6 -56,13 -79,26zm437 -180c-56,-119 -118,-236 -176,-355 -13,-27 -24,-56 -40,-82 -10,-15 -30,-28 -49,-24 -15,4 -29,13 -43,19 -32,13 -63,26 -94,40 -44,20 -93,37 -133,64 -15,9 -26,20 -33,36 -1,2 -3,15 -7,14 -4,-1 -7,-3 -11,-3 -9,-3 -21,1 -30,3 -19,6 -46,18 -59,33 -14,14 -5,36 1,52 21,60 57,115 87,172 22,42 41,85 61,128 21,43 38,89 61,131 1,3 3,6 5,8 1,4 2,7 4,10 2,3 4,5 7,5 5,6 11,11 17,16 12,9 26,4 38,-1 24,-11 56,-14 64,-43 3,-8 -5,-13 5,-8 6,3 16,3 23,2 18,-3 35,-12 51,-20 43,-21 85,-43 127,-67 35,-19 70,-39 103,-62 10,-7 21,-14 27,-25 8,-13 0,-30 -6,-43z"/><path class="fil3" d="M511 311c-25,15 -51,28 -77,40 -14,5 -28,11 -42,15 -20,7 -26,-3 -36,-19 -13,-25 -25,-50 -36,-76 6,-6 12,-10 19,-14 26,-13 51,-27 77,-40 17,-9 64,-41 79,-16 14,24 28,49 39,74 2,5 3,11 4,17 0,7 -22,16 -27,19zm32 -63c-8,-18 -19,-33 -28,-50 -13,-28 -34,-31 -61,-21 -43,15 -83,41 -124,62 -12,6 -22,13 -29,25 -7,11 9,35 14,45 8,18 17,36 27,54 7,12 13,22 27,27 11,4 27,-4 37,-7 22,-8 44,-17 65,-27 22,-10 42,-22 62,-35 9,-6 19,-10 23,-21 7,-16 -6,-39 -13,-52z"/><path class="fil3" d="M217 290c-5,-10 -10,-20 -16,-30 -3,-7 -14,-2 -10,5 5,10 10,21 15,31 3,7 14,1 11,-6z"/><path class="fil3" d="M247 355c-5,-8 -9,-16 -13,-24 -3,-7 -14,-1 -10,5 4,9 8,17 12,25 3,7 14,1 11,-6z"/><path class="fil3" d="M284 424c-5,-11 -11,-22 -17,-33 -3,-7 -14,-2 -10,5 5,11 11,22 16,34 4,7 15,1 11,-6z"/><path class="fil3" d="M319 506c-4,-10 -7,-19 -11,-29 -2,-7 -13,-2 -11,6 4,9 8,19 11,28 3,8 14,2 11,-5z"/><path class="fil3" d="M358 572c-6,-7 -11,-16 -15,-25 -2,-7 -13,-2 -11,6 4,10 10,19 17,27 5,6 14,-2 9,-8z"/><path class="fil3" d="M391 649c-5,-10 -10,-20 -15,-31 -4,-7 -14,-1 -11,6 5,10 10,20 16,30 3,7 14,2 10,-5z"/></g></g></svg>