<?xml version="1.0" ?><svg xmlns="http://www.w3.org/2000/svg" xmlns:xlink="http://www.w3.org/1999/xlink" version="1.1" viewBox="0 0 512 512" style="enable-background:new 0 0 512 512;" xml:space="preserve"><style type="text/css">
	.st0{fill:#231A15;}
	.st1{fill:#FFE000;}
	.st2{fill:#BCA100;}
	.st3{fill:#FC0000;}
	.st4{fill:#AA0000;}
	.st5{fill:#F94343;}
	.st6{fill:#FFFFFF;}
	.st7{fill:#A58E07;}
	.st8{opacity:0.44;}
	.st9{fill:#756204;}
	.st10{opacity:0.64;}
	.st11{opacity:0.38;}
	.st12{fill:#5D5004;}
	.st13{fill:#B7A100;}
	.st14{fill:#1D4DFC;}
	.st15{fill:#143CAF;}
	.st16{opacity:0.59;}
	.st17{opacity:0.52;}
	.st18{fill:#FF7F1F;}
	.st19{fill:#C4570C;}
	.st20{fill:#B29904;}
	.st21{fill:#87720A;}
	.st22{fill:#DDDDDD;}
	.st23{opacity:0.51;}
	.st24{fill:#878787;}
	.st25{fill:#727272;}
	.st26{opacity:0.33;}
	.st27{opacity:0.46;}
	.st28{fill:#25CBF2;}
	.st29{fill:#0A8FA5;}
	.st30{opacity:0.58;}
	.st31{fill:#04889E;}
	.st32{fill:#035A63;}
	.st33{opacity:0.65;}
	.st34{opacity:0.39;}
	.st35{fill:#AB0000;}
	.st36{fill:#1987A1;}
	.st37{fill:#3F1F0A;}
	.st38{fill:#4DEEFF;}
	.st39{fill:#21B9C1;}
	.st40{fill:#BBF9FF;}
	.st41{fill:#64ACAF;}
	.st42{fill:#089FB7;}
	.st43{opacity:0.47;}
	.st44{opacity:0.42;}
	.st45{fill:#DBF7FC;}
	.st46{fill:#B2E7ED;}
	.st47{fill:#0FA2BA;}
	.st48{opacity:0.54;}
	.st49{fill:#8E7716;}
	.st50{fill:#191401;}
	.st51{fill:#382E02;}
	.st52{fill:#605106;}
	.st53{fill:#AFACA0;}
	.st54{fill:#BC0404;}
	.st55{fill:#750000;}
	.st56{fill:#A08B0D;}
	.st57{fill:#5B4C05;}
	.st58{opacity:0.4;}
	.st59{opacity:0.5;}
	.st60{fill:#FF8383;}
	.st61{fill:#FFF0A6;}
	.st62{fill:#E2C227;}
	.st63{fill:#AA9205;}
	.st64{fill:#FFEA71;}
	.st65{opacity:0.22;}
	.st66{fill:#B19B00;}
	.st67{fill:#1989A4;}
	.st68{fill:#13A0B7;}
	.st69{fill:#C4A805;}
	.st70{fill:#FFF3A9;}
	.st71{fill:#846E03;}
	.st72{fill:#2D2502;}
	.st73{opacity:0.36;}
	.st74{fill:#4DD307;}
	.st75{fill:#328402;}
	.st76{fill:#97FF5A;}
	.st77{fill:#7A6500;}
	.st78{fill:#246001;}
	.st79{fill:#359100;}
	.st80{fill:#968022;}
	.st81{fill:#4F420B;}
	.st82{fill:#FFED83;}
	.st83{fill:#BAA335;}
	.st84{fill:#8D0991;}
	.st85{fill:#4B044F;}
	.st86{fill:#CE15CE;}
	.st87{fill:#897502;}
	.st88{fill:#493D01;}
	.st89{fill:#C9C9C9;}
	.st90{fill:#2D280E;}
	.st91{fill:#378C06;}
	.st92{fill:#183A03;}
	.st93{fill:#94FF55;}
	.st94{fill:#2E7F04;}
	.st95{fill:#63AB39;}
	.st96{fill:#AA5F04;}
	.st97{fill:#633502;}
	.st98{fill:#EF9014;}
	.st99{fill:#A05A07;}
	.st100{fill:#05616B;}
	.st101{fill:#033335;}
	.st102{fill:#0E94AA;}
	.st103{fill:#035D66;}
	.st104{opacity:0.27;}
	.st105{opacity:0.43;}
	.st106{fill:#FFF203;}
	.st107{fill:#FFA300;}
	.st108{fill:#2B3030;}
	.st109{opacity:0.28;}
	.st110{fill:#FCD17A;}
	.st111{fill:#AF853A;}
	.st112{opacity:0.31;}
	.st113{fill:#B641FF;}
	.st114{fill:#700FBC;}
	.st115{fill:#F2D0B1;}
	.st116{fill:#AF835F;}
	.st117{fill:#C17540;}
	.st118{fill:#F2BA94;}
	.st119{fill:#592909;}
	.st120{fill:#2B1204;}
	.st121{fill:#894818;}
	.st122{fill:#512609;}
	.st123{fill:#FF7F15;}
	.st124{fill:#A04A0A;}
	.st125{fill:#B7865E;}
	.st126{fill:#70350E;}
	.st127{fill:#3A1805;}
	.st128{fill:#C1521B;}
	.st129{fill:#FFC7AE;}
	.st130{fill:#FF717F;}
	.st131{fill:#6E2F0F;}
	.st132{fill:#AC8675;}
	.st133{opacity:0.25;}
	.st134{opacity:0.32;}
	.st135{fill:#FFFCC5;}
	.st136{fill:#D1CA78;}
	.st137{fill:#D37733;}
	.st138{fill:#A04F18;}
	.st139{fill:#0ABFBA;}
	.st140{fill:#057F79;}
	.st141{fill:#15F9F9;}
	.st142{fill:#09B2AD;}
	.st143{fill:#B2B2B2;}
	.st144{fill:#FFF755;}
	.st145{fill:#BCB121;}
	.st146{fill:#F90368;}
	.st147{opacity:0.49;}
	.st148{fill:#B50857;}
	.st149{fill:#FF76B4;}
	.st150{fill:#F23091;}
	.st151{fill:#FFF800;}
	.st152{fill:#C9BF05;}
	.st153{fill:#FF8500;}
	.st154{fill:#A35507;}
	.st155{fill:#AA6E50;}
	.st156{fill:#723C25;}
	.st157{fill:#EAD4B9;}
	.st158{fill:#AA8D6F;}
	.st159{fill:#B7A8A5;}
	.st160{fill:#84726F;}
	.st161{fill:#77645F;}
	.st162{fill:#51403C;}
	.st163{fill:#EABBA7;}
	.st164{fill:#BC7F69;}
	.st165{fill:#7C5039;}
	.st166{fill:#442619;}
	.st167{fill:#B7AE04;}
	.st168{fill:#BAB108;}
	.st169{fill:#7A7105;}
	.st170{fill:#352B23;}
	.st171{fill:#050403;}
	.st172{fill:#706255;}
	.st173{fill:#44382E;}
	.st174{fill:#634319;}
	.st175{fill:#35210A;}
	.st176{fill:#2D1C08;}
	.st177{fill:#0A0601;}
	.st178{fill:#9E7443;}
	.st179{fill:#704D2A;}
	.st180{fill:#D8A73A;}
	.st181{fill:#A0741C;}
	.st182{fill:#3F2F28;}
	.st183{fill:#211410;}
	.st184{fill:#FF326C;}
	.st185{fill:#BC0749;}
	.st186{fill:#68390E;}
	.st187{fill:#A5632D;}
	.st188{fill:#3D1E05;}
	.st189{fill:#331A06;}
	.st190{fill:#110801;}
	.st191{fill:#160A02;}
	.st192{fill:#663514;}
	.st193{opacity:0.29;}
	.st194{fill:#FC001F;}
	.st195{fill:#AF021F;}
	.st196{fill:#C48622;}
	.st197{fill:#8C5910;}
	.st198{fill:#846D64;}
	.st199{fill:#513B35;}
	.st200{fill:#5B4842;}
	.st201{fill:#332522;}
	.st202{fill:#47332C;}
	.st203{fill:#543E38;}
	.st204{fill:#1E1412;}
	.st205{fill:#604C43;}
	.st206{fill:#D3896C;}
	.st207{fill:#FF001F;}
	.st208{fill:#AF0824;}
	.st209{fill:#A37462;}
	.st210{fill:#5E3E34;}
	.st211{fill:#874A38;}
	.st212{fill:#4C2218;}
	.st213{fill:#5B2B20;}
	.st214{fill:#210C09;}
	.st215{fill:#99001A;}
	.st216{fill:#A08A07;}
	.st217{fill:#A08904;}
	.st218{fill:#5B4C02;}
	.st219{fill:#CECAB7;}
	.st220{fill:#727068;}
	.st221{fill:#42403A;}
	.st222{fill:#B2B0A6;}
	.st223{fill:#726F62;}
	.st224{fill:#6B4F45;}
	.st225{fill:#3A261F;}
	.st226{fill:#777468;}
	.st227{fill:#474436;}
	.st228{fill:#B78B7D;}
	.st229{fill:#845A4E;}
	.st230{fill:#3A372D;}
	.st231{fill:#43CFFF;}
	.st232{fill:#13A0BC;}
</style><g id="_x35_9"><g><path class="st0" d="M285.14,441.36c-0.21,0-0.41,0-0.61-0.01L52.8,434.6c-10.89-0.32-19.42-9.1-19.42-19.99v-9.84    c-4.78-2.81-7.85-8.03-7.85-14.26c0-6.24,3.07-11.46,7.85-14.27v-20.3c-4.22-2.92-6.89-7.84-6.89-13.64    c0-5.81,2.67-10.73,6.89-13.65v-20.67c-2.53-2.92-3.99-6.78-3.99-11c0-4.23,1.46-8.09,3.99-11.02v-16.52    c0-0.68,0.04-1.38,0.11-2.06c-0.19-1.3-0.52-3.74-0.85-7.15c-2.65-4.58-3.01-10.35-0.95-15.27c-0.3-10.53,0.09-21.04,1.16-31.31    c-1.17-4.44-0.52-9.23,1.77-13.11c0.79-4.72,1.73-9.35,2.8-13.8c0.43-1.77,0.88-3.54,1.35-5.26c0.14-0.5,0.29-1.01,0.43-1.51    l0.41-1.41c0.21-0.74,0.42-1.49,0.65-2.22c0.21-0.7,0.44-1.4,0.67-2.1l0.26-0.78c-0.3-1.25-0.46-2.52-0.46-3.78v-1.93    c0-4.14,1.61-8.17,4.54-11.36c1.16-1.26,2.51-2.31,4.02-3.12c0.01-0.03,0.03-0.06,0.04-0.09l0.32-0.66    c0.61-1.23,1.27-2.52,2.04-3.97l0.24-0.46c0.69-1.28,1.42-2.59,2.24-4l0.1-0.18c0.02-0.03,0.04-0.06,0.05-0.09    c0.76-1.31,1.59-2.66,2.45-4.03l0.12-0.19c0.78-1.23,1.65-2.55,2.56-3.88c0.02-0.04,0.05-0.07,0.07-0.11    c1.64-2.39,3.36-4.73,5.13-6.97c1.33-5.13,4.96-9.2,9.79-11.04c6.89-6.88,14.62-12.95,23.05-18.11c2.65-3.39,6.58-5.56,11-6.01    c11.59-5.64,24.41-9.81,38.13-12.4c58.92-11.13,115.4-13.41,163.35-6.6c4.16,0.59,8.43,1.28,12.7,2.06c0.02,0,0.05,0.01,0.07,0.01    c6.13,1.11,12.21,2.4,18.07,3.84l0.9,0.22c1.22,0.3,2.38,0.6,3.55,0.91l1.31,0.34c1.12,0.3,2.22,0.6,3.31,0.91l1.44,0.41    c1.07,0.31,2.13,0.61,3.17,0.93l1.71,0.52c0.96,0.29,1.92,0.59,2.86,0.89l0.93,0.31c1.82,0.59,3.72,1.24,5.63,1.92l0.53,0.19    c0.52,0.18,1.05,0.37,1.57,0.56c0.61,0.22,1.19,0.44,1.78,0.67l0.39,0.15c0.76,0.29,1.53,0.57,2.29,0.87    c0.59,0.23,1.16,0.46,1.73,0.68l0.29,0.12c0.81,0.33,1.6,0.65,2.39,0.97c0.64,0.26,1.27,0.53,1.89,0.8    c0.83,0.35,1.65,0.71,2.47,1.07l0.31,0.14c0.47,0.21,0.94,0.42,1.41,0.62c0.91,0.41,1.81,0.83,2.71,1.26l1.37,0.65    c1.37,0.66,2.71,1.32,4.02,1.99c0.04,0.02,0.07,0.04,0.11,0.06v0c5.16,2.64,10.07,5.47,14.67,8.44c0.57-0.06,1.15-0.08,1.72-0.07    c2.28-0.02,4.38,0.42,6.4,1.34c2.04,0.79,3.84,2,5.37,3.59l0.87,0.86c2.05,2.06,3.46,4.49,4.23,7.24    c0.13,0.45,0.22,0.91,0.28,1.37l0.04,0.27c2.65,2.45,5.24,5.03,7.74,7.72c4.48,0.71,8.33,3.17,10.82,6.99    c1.9,2.92,2.82,6.39,2.71,9.85c4.71,6.78,9.05,14.12,12.92,21.87c1.41,1.82,2.43,3.96,2.99,6.26c3.58,7.87,6.76,16.2,9.47,24.83    c3.24,2.06,5.65,5.28,6.77,9.27c1.18,4.21,0.72,8.61-1.1,12.3c0.1,0.48,0.21,0.96,0.3,1.43l0.12,0.59    c1.06,5.14,1.97,10.38,2.71,15.56l0.19,1.35c0.13,0.94,0.25,1.87,0.37,2.8c0.07,0.57,0.14,1.14,0.21,1.71    c0.1,0.85,0.2,1.71,0.29,2.56c0.06,0.54,0.11,1.09,0.17,1.64l0.07,0.75c0.06,0.61,0.12,1.22,0.18,1.82    c0.03,0.32,0.06,0.64,0.08,0.95c1.65,2.45,2.63,5.37,2.81,8.48c0.19,3.25-0.52,6.4-1.98,9.11c0,0.41,0,0.81,0,1.21l0,1.17    c-0.01,1.17-0.03,2.32-0.06,3.44l-0.49,16.97c2.93,3.09,4.61,7.36,4.48,12.03c-0.13,4.65-2.06,8.8-5.17,11.71l-0.32,11.02    c0.32,0.25,0.62,0.52,0.91,0.81c2.02,2.03,3.43,4.46,4.21,7.21c0.13,0.45,0.22,0.91,0.28,1.38l0.23,1.73    c0.04,0.31,0.07,0.63,0.08,0.95c0.09,2.38-0.36,4.65-1.33,6.78c-0.77,1.99-1.95,3.76-3.5,5.27c-0.51,0.53-1.06,1.01-1.63,1.45    l-0.36,12.52c1.63,2.37,2.66,5.11,2.91,7.94c0.37,4.12-0.86,8.08-3.47,11.34l-0.37,12.63c1.12,3.64,1,7.63-0.32,11.19l-0.01,0.3    c-0.3,10.24-8.22,18.56-18.44,19.36l-173.25,13.5C286.18,441.34,285.66,441.36,285.14,441.36z M51.13,390.5    c1.45,1.77,2.26,4,2.26,6.33v17.78l231.75,6.75l173.25-13.5l0.07-2.35c0.04-1.22,0.29-2.42,0.76-3.54    c-0.4-1.14-0.59-2.36-0.55-3.57l0.54-18.62c0.06-2.03,0.73-3.97,1.9-5.58c-1.07-1.67-1.63-3.64-1.57-5.68l0.66-22.92    c0.07-2.47,1.03-4.71,2.57-6.41c-1.44-1.79-2.27-4.08-2.2-6.55l0.66-22.83c0.07-2.39,0.98-4.58,2.46-6.28    c-1.38-1.78-2.16-4.03-2.09-6.42l0.65-22.48c0.03-0.98,0.04-1.99,0.05-3.02l0-1.05c0-0.7,0-1.42-0.01-2.16    c0-0.43-0.01-0.87-0.02-1.3l-0.01-0.6c-0.05-1.77,0.38-3.49,1.2-5.02c-0.96-1.42-1.54-3.09-1.67-4.84    c-0.03-0.39-0.06-0.78-0.09-1.17l-0.08-1c-0.05-0.6-0.1-1.21-0.15-1.82c-0.05-0.54-0.1-1.08-0.16-1.62l-0.07-0.74    c-0.05-0.5-0.1-0.99-0.16-1.49c-0.08-0.79-0.18-1.58-0.27-2.36c-0.06-0.52-0.12-1.04-0.19-1.56c-0.11-0.85-0.22-1.71-0.34-2.58    l-0.18-1.24c-0.68-4.78-1.52-9.6-2.5-14.35l-0.1-0.52c-0.25-1.21-0.52-2.41-0.79-3.61l-0.43-1.89c-0.5-2.11-0.28-4.26,0.52-6.18    c-1.64-1.27-2.88-3.04-3.48-5.12c-2.84-9.77-6.32-19.13-10.34-27.84c-0.28-0.61-0.5-1.24-0.65-1.89    c-0.41-0.53-0.77-1.11-1.07-1.72c-4.17-8.49-8.94-16.41-14.18-23.52c-1.2-1.62-1.85-3.54-1.94-5.49c-1.88-0.51-3.6-1.56-4.93-3.08    c-3.86-4.42-7.97-8.52-12.23-12.19c-1.78-1.53-2.92-3.61-3.32-5.83c-2.26,0.18-4.55-0.41-6.48-1.75    c-5.04-3.49-10.57-6.78-16.45-9.78c-0.03-0.02-0.07-0.04-0.11-0.06c-1.16-0.59-2.33-1.17-3.52-1.74l-1.24-0.58    c-0.81-0.38-1.62-0.76-2.44-1.13c-0.41-0.18-0.82-0.36-1.23-0.54l-0.31-0.14c-0.74-0.32-1.48-0.65-2.23-0.97    c-0.57-0.24-1.14-0.48-1.72-0.72c-0.71-0.29-1.43-0.59-2.16-0.88l-0.27-0.11c-0.52-0.21-1.03-0.41-1.56-0.62    c-0.68-0.27-1.39-0.53-2.09-0.79l-0.41-0.15c-0.52-0.2-1.05-0.4-1.58-0.59c-0.44-0.16-0.89-0.32-1.34-0.48l-0.56-0.2    c-1.76-0.62-3.5-1.21-5.17-1.76l-0.85-0.28c-0.88-0.28-1.75-0.55-2.63-0.82l-1.6-0.49c-0.96-0.29-1.93-0.57-2.9-0.85l-1.34-0.38    c-1.02-0.29-2.04-0.56-3.05-0.84l-1.22-0.32c-1.08-0.28-2.17-0.56-3.28-0.84l-0.86-0.21c-5.45-1.33-11.11-2.54-16.83-3.58    c-0.02,0-0.04-0.01-0.06-0.01c-4.04-0.73-8.08-1.39-12-1.95c-45.8-6.51-100.03-4.28-156.82,6.45    c-12.68,2.39-24.41,6.3-34.85,11.61c-1.02,0.52-2.11,0.85-3.23,1c-0.73,0.86-1.6,1.59-2.58,2.17    c-8.47,4.96-16.14,11.01-22.79,17.97c-0.92,0.96-2.02,1.73-3.22,2.25c-0.38,1.27-1.01,2.45-1.86,3.49    c-1.98,2.41-3.92,4.97-5.74,7.63c-0.01,0.01-0.01,0.02-0.02,0.03c-0.83,1.21-1.58,2.36-2.29,3.46l-0.08,0.13    c-0.72,1.14-1.41,2.27-2.05,3.37l-0.12,0.22c-0.75,1.3-1.38,2.42-1.97,3.51l-0.18,0.35c-0.62,1.16-1.21,2.29-1.77,3.44l-0.29,0.6    c-0.53,1.08-1.06,2.19-1.57,3.32c-0.92,2.03-2.51,3.73-4.44,4.8c0.69,2.08,0.69,4.35-0.05,6.46l-0.23,0.65    c-0.07,0.19-0.14,0.39-0.21,0.58c-0.12,0.36-0.24,0.73-0.36,1.1l-0.52,1.6c-0.19,0.57-0.37,1.14-0.55,1.71    c-0.19,0.62-0.36,1.23-0.54,1.84l-0.46,1.59c-0.11,0.37-0.22,0.75-0.32,1.13c-0.42,1.54-0.83,3.11-1.21,4.69    c-1.12,4.66-2.09,9.56-2.87,14.56c-0.2,1.31-0.67,2.57-1.35,3.69c0.37,1.27,0.48,2.6,0.33,3.92c-1.25,10.89-1.66,22.11-1.2,33.34    c0.06,1.54-0.23,3.07-0.85,4.46c0.78,1.3,1.26,2.78,1.39,4.32c0.43,5.14,0.92,8.44,1.04,9.24l0.05,0.22    c0.3,1.4,0.3,2.86-0.02,4.26l-0.01,21.32c0,2.28-0.77,4.45-2.11,6.18c1.33,1.72,2.11,3.86,2.11,6.14v32.73    c0,2.39-0.86,4.69-2.39,6.49c1.52,1.79,2.39,4.08,2.39,6.45v35.42C53.39,386.5,52.58,388.73,51.13,390.5z M46.75,300.26    C46.75,300.26,46.74,300.27,46.75,300.26C46.74,300.27,46.75,300.26,46.75,300.26z M46.73,293.66    C46.73,293.66,46.74,293.66,46.73,293.66C46.74,293.66,46.73,293.66,46.73,293.66z M53.38,265.14    C53.39,265.14,53.39,265.14,53.38,265.14C53.39,265.14,53.39,265.14,53.38,265.14z M53.32,264.8l0,0.01    C53.32,264.8,53.32,264.8,53.32,264.8z M49.2,249.27C49.2,249.27,49.2,249.27,49.2,249.27C49.2,249.27,49.2,249.27,49.2,249.27z     M51.27,211.47C51.26,211.47,51.26,211.47,51.27,211.47C51.26,211.47,51.26,211.47,51.27,211.47z M460.07,210.37    C460.06,210.37,460.06,210.37,460.07,210.37C460.06,210.37,460.06,210.37,460.07,210.37z M443.2,180.65    C443.2,180.66,443.21,180.66,443.2,180.65C443.21,180.66,443.2,180.66,443.2,180.65z M408.8,126.56    C408.8,126.56,408.8,126.56,408.8,126.56C408.8,126.56,408.8,126.56,408.8,126.56z"/></g><g><g><g><path class="st194" d="M413.75,125.41c-7.9-6.7-17.1-12.71-27.47-18.01c-0.02-0.01-0.04-0.02-0.05-0.03      c-21.35-10.9-47.62-18.72-77.64-22.99c-46.87-6.66-102.23-4.4-160.09,6.52c-53.22,10.05-88.26,44-101.35,98.18      c-9.61,39.77-3.89,76.13-3.64,77.66c0.03,0.18,0.08,0.36,0.11,0.53c-0.16,0.71-0.24,1.43-0.24,2.16v145.16      c0,5.41,4.3,9.84,9.71,10l231.75,6.75c0.09,0,0.18,0,0.27,0c0,0,0,0,0,0c0,0,0,0,0,0c0,0,0.01,0,0.01,0      c0.26,0,0.52-0.01,0.78-0.03l173.25-13.5c5.09-0.4,9.07-4.57,9.22-9.68l1.81-62.45c0,0,0,0,0-0.01c0,0,0,0,0,0l2.05-70.76      C473.29,238.7,462.15,166.44,413.75,125.41z"/></g><g><path class="st215" d="M413.75,125.41c-7.9-6.7-17.1-12.71-27.47-18.01c-0.02-0.01-0.04-0.02-0.05-0.03      c-18.36-9.37-40.37-16.46-65.26-20.98c4.6,7.83,6.88,16.77,7.4,26.07c0.25,4.44-0.45,8.54-1.05,12.99      c-0.57,4.26-0.92,8.6-2.21,12.72c-2.38,7.59-5.63,15.61-10.11,22.35c-10.01,15.04-21.23,25.18-35.82,35.64      c-7.91,5.68-16.57,10.16-25.51,13.98c-11.71,5.01-23.35,10.02-35.84,12.72c-28.95,6.26-58.77,5.77-85.78-7.37      c-1.41-0.69-2.72-1.45-3.99-2.27c-1.04-0.26-2.08-0.53-3.11-0.82c-13.61-3.75-25.48-9.85-35.68-19.65      c-10.47-10.06-16.16-25.21-16.01-39.55c0.11-10.59,3.29-20.27,8.62-28.87c-16.58,16.42-28.31,38.14-34.74,64.75      c-9.61,39.77-3.89,76.13-3.64,77.66c0.03,0.18,0.08,0.36,0.11,0.53c-0.16,0.71-0.24,1.43-0.24,2.16v21.32      c1.22-1.71,2.54-3.29,3.94-4.68c7.74-7.74,17.57-10.96,28.24-11.7c24.74-1.7,49.54-1.12,74.31-0.95      c12.7,0.09,25.39-0.16,38.09-0.35c14.52-0.21,29.88-0.37,43.5,5.29c8.71,3.62,14.99,6.87,20.75,14.31      c4.43,5.74,6.9,11.71,7.86,18.89c2.04,15.18-5.04,32.24-19.07,39.79c-6.4,3.45-12.95,6.52-19.61,9.26      c-7.11,8.03-16.89,13.66-27.42,17.39c-11.44,4.05-24.21,4.97-36.22,5.8c-11.12,0.77-22.29,0.77-33.43,0.5      c-17.58-0.43-35.09-1.79-52.63-3.06c-11.04-0.8-20.12-4.24-28.24-11.7c-0.03-0.03-0.05-0.05-0.08-0.08v45.12      c0,5.41,4.3,9.84,9.71,10l231.75,6.75c0.09,0,0.18,0,0.27,0c0,0,0,0,0,0c0,0,0,0,0,0c0,0,0.01,0,0.01,0      c0.26,0,0.52-0.01,0.78-0.03l173.25-13.5c5.09-0.4,9.07-4.57,9.22-9.68l1.81-62.45c0,0,0,0,0-0.01c0,0,0,0,0,0l2.05-70.76      C473.29,238.7,462.15,166.44,413.75,125.41z"/></g></g><g><g><path class="st1" d="M413.75,125.41c-7.9-6.7-17.1-12.71-27.47-18.01c-0.02-0.01-0.04-0.02-0.05-0.03      c-21.35-10.9-47.62-18.72-77.64-22.99c-46.87-6.66-102.23-4.4-160.09,6.52c-53.22,10.05-88.26,44-101.35,98.18      c-9.61,39.77-3.89,76.13-3.64,77.66c0.03,0.18,0.08,0.36,0.11,0.53c-0.16,0.71-0.24,1.43-0.24,2.16v145.16      c0,5.41,4.3,9.84,9.71,10l231.75,6.75c0.09,0,0.18,0,0.27,0c0,0,0,0,0,0c0,0,0,0,0,0c0,0,0.01,0,0.01,0      c0.26,0,0.52-0.01,0.78-0.03l173.25-13.5c5.09-0.4,9.07-4.57,9.22-9.68l1.81-62.45c0,0,0,0,0-0.01c0,0,0,0,0,0l2.05-70.76      C473.29,238.7,462.15,166.44,413.75,125.41z M294.38,410.61c-0.62-9.67-1.46-25.85-1.7-45.79c26.85-1.61,56.73-3.38,83.72-4.95      v44.36L294.38,410.61z M179.23,285.09l95.69,4.29c-1.58,19.88-2.25,39.17-2.39,56.61c-0.1,0.01-0.22,0.01-0.3,0.02l-93-4.76      V285.09z M159.23,340.23l-95.84-4.9V279.9l95.84,4.29V340.23z M271.77,366.01c0.17,0.01,0.34,0.01,0.51,0.01      c0.11,0,0.21-0.01,0.32-0.01c0.27,19.34,1.09,35.13,1.74,45.03l-95.1-2.77v-46.99L271.77,366.01z M365.39,340.47      c-27.24,1.59-54.66,3.23-72.74,4.31c0.16-17.11,0.83-35.95,2.39-55.24l81.36-2.38v52.67      C372.83,340.03,369.17,340.25,365.39,340.47z M396.4,286.57l55.55-1.63l-1.47,50.77c-4.9,0.23-11.77,0.59-20.49,1.07      c-9.14,0.5-20.39,1.13-33.59,1.89V286.57z M452.2,264.92l-155.23,4.55c1.73-15.28,4.09-30.57,7.26-45.23      c7.41-34.3,23.08-61.21,46.57-80c12.8-10.23,24.59-15.16,30.13-17.1c7.38,4.06,14.03,8.57,19.88,13.53      C439.53,173.48,451.04,231.68,452.2,264.92z M356.63,116.31c-5.35,2.97-11.28,6.77-17.41,11.59      c-19.03,14.95-43.95,43.08-54.54,92.12c-3.48,16.12-6.03,32.83-7.87,49.42l-97.56-4.37c0.6-73.36,17.68-113.04,32.26-133.56      c15.95-22.45,31.7-26.85,32.36-27.03l-0.12,0.03l-0.89-3.71C286.63,99.91,325.68,105.22,356.63,116.31z M66.6,193.78      c11.26-46.62,40.07-74.62,85.62-83.22c19.85-3.75,39.29-6.41,58.07-8.01c-22.53,20.98-50.12,66.16-51.02,161.63l-96.49-4.32      C61.69,250.18,59.6,222.76,66.6,193.78z M63.39,355.35l95.84,4.9v47.43l-95.84-2.79V355.35z M396.4,402.66V358.7      c23.04-1.32,42.39-2.4,53.5-2.94l-1.24,42.83L396.4,402.66z"/></g><g><path class="st216" d="M435.1,148.45c-0.18,1.84-0.47,3.67-0.88,5.49c-1.36,5.96-4.7,11.37-8.9,15.83      c19.38,31.68,26.02,70.36,26.88,95.15l-59.39,1.74c-0.25,0.69-0.5,1.39-0.77,2.08c-4.18,10.66-9.4,20.77-15.64,30.2v40.88      c-3.57,0.21-7.23,0.42-11.01,0.64c-10.82,0.63-21.66,1.27-31.94,1.88c-11.66,8.46-24.14,15.81-37.18,21.87      c-0.32,0.15-0.64,0.29-0.96,0.44c26.17-1.57,54.98-3.28,81.1-4.8v44.36l-82.02,6.39c-0.61-9.5-1.43-25.3-1.69-44.76      c-6.58,2.97-13.22,5.75-19.94,8.31c0.35,15.63,1.03,28.42,1.59,36.89l-95.1-2.77v-20.03c-6.66,1.02-13.36,1.69-20,1.84v17.6      l-47.53-1.38c-2.81,3.48-5.85,6.72-9.18,9.55c-5.46,4.63-10.62,7.88-16.86,9.7l199.18,5.8c0.09,0,0.18,0,0.27,0c0,0,0,0,0,0      c0,0,0,0,0,0c0,0,0.01,0,0.01,0c0.26,0,0.52-0.01,0.78-0.03l173.25-13.5c5.09-0.4,9.07-4.57,9.22-9.68l1.81-62.45      c0,0,0,0,0-0.01c0,0,0,0,0,0l2.05-70.76C473.11,244.79,465.53,189.74,435.1,148.45z M448.65,398.59l-52.26,4.07V358.7      c23.04-1.32,42.39-2.4,53.5-2.94L448.65,398.59z M450.47,335.71c-4.9,0.23-11.77,0.59-20.49,1.07      c-9.14,0.5-20.39,1.13-33.59,1.89v-52.1l55.55-1.63L450.47,335.71z M60.76,424.83l-7.67-0.22c-5.41-0.16-9.71-4.59-9.71-10      v-2.17c3.93,4.94,9.1,8.96,15.51,11.66C59.52,424.37,60.14,424.6,60.76,424.83z"/></g></g><g><g><rect x="139.85" y="249.39" class="st1" width="61.07" height="71.68"/></g><g><path class="st216" d="M196.63,249.39c0.77,1.82,1.53,3.64,2.3,5.45c1.66,5.31,1.9,10.62,0.71,15.93      c-0.24,5.32-1.82,10.26-4.74,14.85c-2.51,4.65-5.94,8.39-10.29,11.21c-3.86,3.53-8.38,5.91-13.58,7.15      c-4.28,1.32-8.95,2-13.4,1.91c-7.38-0.15-12.05-1.31-17.79-3.81v19h61.07v-71.68H196.63z"/></g></g><g><g><path class="st217" d="M180.86,279.19c0-6.38-5.17-11.55-11.55-11.55s-11.55,5.17-11.55,11.55c0,4.22,2.27,7.89,5.64,9.91      l-5.64,14.67h22.75l-6.19-14.18C178.19,287.72,180.86,283.77,180.86,279.19z"/></g><g><path class="st218" d="M164.2,303.77c-0.16-5.4,0.98-10.44,3.44-15.12c1.61-4.95,4.36-9.24,8.26-12.85      c0.98-1.05,2.01-2.02,3.09-2.91c-2.06-3.16-5.62-5.25-9.67-5.25c-6.38,0-11.55,5.17-11.55,11.55c0,4.22,2.27,7.89,5.64,9.91      l-5.64,14.67H164.2z"/></g></g><g><path class="st194" d="M220.21,101.93c-8.38,0-8.36-13,0-13C228.59,88.93,228.57,101.93,220.21,101.93z M191.28,117.86     c-8.36,0-8.38,13,0,13C199.65,130.86,199.66,117.86,191.28,117.86z M175.85,150.64c-8.36,0-8.38,13,0,13     C184.22,163.64,184.23,150.64,175.85,150.64z M160.42,195.96c-8.36,0-8.38,13,0,13C168.79,208.96,168.8,195.96,160.42,195.96z      M156.57,238.39c-8.36,0-8.38,13,0,13C164.93,251.39,164.94,238.39,156.57,238.39z M361.96,108.21c-8.36,0-8.38,13,0,13     C370.32,121.21,370.34,108.21,361.96,108.21z M336.89,123.64c-8.36,0-8.38,13,0,13C345.25,136.64,345.27,123.64,336.89,123.64z      M318.57,144.86c-8.36,0-8.38,13,0,13C326.93,157.86,326.94,144.86,318.57,144.86z M292.53,187.29c-8.36,0-8.38,13,0,13     C300.9,200.29,300.91,187.29,292.53,187.29z M284.82,224.89c-8.36,0-8.38,13,0,13C293.18,237.89,293.19,224.89,284.82,224.89z      M284.97,267.46c-0.26-0.81-0.71-1.5-1.34-2.09c-0.44-0.34-0.88-0.68-1.32-1.02c-1.01-0.59-2.11-0.88-3.28-0.89     c-0.58,0.08-1.15,0.15-1.73,0.23c-1.1,0.31-2.06,0.87-2.87,1.67l-0.96,0.96c-0.63,0.59-1.08,1.29-1.34,2.09     c-0.41,0.77-0.59,1.61-0.56,2.5c-0.03,0.9,0.15,1.73,0.56,2.5c0.26,0.81,0.71,1.5,1.34,2.09c0.44,0.34,0.88,0.68,1.32,1.02     c1.01,0.59,2.11,0.88,3.28,0.89c0.58-0.08,1.15-0.15,1.73-0.23c1.1-0.31,2.06-0.87,2.87-1.67c0.32-0.32,0.64-0.64,0.96-0.96     c0.63-0.59,1.08-1.29,1.34-2.09c0.41-0.77,0.59-1.61,0.56-2.5C285.56,269.07,285.38,268.23,284.97,267.46z M276.14,305.89     c-8.36,0-8.38,13,0,13C284.5,318.89,284.52,305.89,276.14,305.89z M272.28,345.43c-8.36,0-8.38,13,0,13     C280.65,358.43,280.66,345.43,272.28,345.43z M273.24,387.86c-8.36,0-8.38,13,0,13C281.61,400.86,281.62,387.86,273.24,387.86z      M277.1,409.07c-8.36,0-8.38,13,0,13C285.47,422.07,285.48,409.07,277.1,409.07z M143.07,92.79c-8.36,0-8.38,13,0,13     C151.43,105.79,151.44,92.79,143.07,92.79z M110.28,103.39c-8.36,0-8.38,13,0,13C118.65,116.39,118.66,103.39,110.28,103.39z      M80.39,126.54c-8.36,0-8.38,13,0,13C88.75,139.54,88.77,126.54,80.39,126.54z M61.84,163.15c-0.59-0.63-1.29-1.08-2.09-1.34     c-0.77-0.41-1.61-0.59-2.5-0.56c-1.68,0.08-3.42,0.63-4.6,1.9c-1.17,1.27-1.9,2.83-1.9,4.6v1.93c0,1.67,0.73,3.42,1.9,4.6     c0.59,0.63,1.29,1.08,2.09,1.34c0.77,0.41,1.61,0.59,2.5,0.56c1.68-0.08,3.42-0.63,4.6-1.9c1.17-1.27,1.9-2.84,1.9-4.6v-1.93     C63.74,166.08,63.02,164.33,61.84,163.15z M48.57,202.71c-8.36,0-8.38,13,0,13C56.93,215.71,56.94,202.71,48.57,202.71z      M46.64,245.14c-8.36,0-8.38,13,0,13C55,258.14,55.02,245.14,46.64,245.14z M45.67,290.46c-8.36,0-8.38,13,0,13     C54.04,303.46,54.05,290.46,45.67,290.46z M42.78,335.79c-8.36,0-8.38,13,0,13C51.15,348.79,51.16,335.79,42.78,335.79z      M41.82,384c-8.36,0-8.38,13,0,13C50.18,397,50.19,384,41.82,384z M414.51,122.63c-0.31-1.1-0.87-2.06-1.67-2.87l-0.96-0.96     c-0.59-0.63-1.29-1.08-2.09-1.34c-0.77-0.41-1.61-0.59-2.5-0.56c-0.9-0.03-1.73,0.15-2.5,0.56c-0.81,0.26-1.5,0.71-2.09,1.34     c-0.34,0.44-0.68,0.88-1.02,1.32c-0.59,1.01-0.88,2.11-0.89,3.28c0.08,0.58,0.15,1.15,0.23,1.73c0.31,1.1,0.87,2.06,1.67,2.87     l0.96,0.96c0.59,0.63,1.29,1.08,2.09,1.34c0.77,0.41,1.61,0.59,2.5,0.56c0.89,0.03,1.73-0.15,2.5-0.56     c0.81-0.26,1.5-0.71,2.09-1.34c0.34-0.44,0.68-0.88,1.02-1.32c0.59-1.01,0.88-2.11,0.89-3.28L414.51,122.63z M429.46,139.07     c-8.36,0-8.38,13,0,13C437.82,152.07,437.84,139.07,429.46,139.07z M445.85,171.86c-8.36,0-8.38,13,0,13     C454.22,184.86,454.23,171.86,445.85,171.86z M462.24,206.57c-8.36,0-8.38,13,0,13C470.61,219.57,470.62,206.57,462.24,206.57z      M468.03,254.79c-8.36,0-8.38,13,0,13C476.4,267.79,476.41,254.79,468.03,254.79z M469.96,297.21c-8.36,0-8.38,13,0,13     C478.32,310.21,478.34,297.21,469.96,297.21z M476.23,337.66c-0.31-1.1-0.87-2.06-1.67-2.87c-0.44-0.34-0.88-0.68-1.32-1.02     c-1.01-0.59-2.11-0.88-3.28-0.89h-0.96c-0.89-0.03-1.73,0.15-2.5,0.56c-0.81,0.26-1.5,0.71-2.09,1.34     c-0.63,0.59-1.08,1.29-1.34,2.09c-0.41,0.77-0.59,1.61-0.56,2.5l0.23,1.73c0.31,1.1,0.87,2.06,1.67,2.87     c0.44,0.34,0.88,0.68,1.32,1.02c1.01,0.59,2.11,0.88,3.28,0.89h0.96c0.9,0.03,1.73-0.15,2.5-0.56c0.81-0.26,1.5-0.71,2.09-1.34     c0.63-0.59,1.08-1.29,1.34-2.09c0.41-0.77,0.59-1.61,0.56-2.5L476.23,337.66z M461.51,369.51l-0.6,0.6     c-5.92,5.92,3.27,15.12,9.19,9.19l0.6-0.6C476.62,372.78,467.43,363.59,461.51,369.51z M463.21,395.57c-8.36,0-8.38,13,0,13     C471.57,408.57,471.59,395.57,463.21,395.57z M318.57,265.39c-8.36,0-8.38,13,0,13C326.93,278.39,326.94,265.39,318.57,265.39z      M352.32,264.43c-8.36,0-8.38,13,0,13C360.68,277.43,360.69,264.43,352.32,264.43z M392.82,264.43c-8.36,0-8.38,13,0,13     C401.18,277.43,401.19,264.43,392.82,264.43z M432.35,262.5c-8.36,0-8.38,13,0,13C440.72,275.5,440.73,262.5,432.35,262.5z      M391.85,297.21c-8.36,0-8.38,13,0,13C400.22,310.21,400.23,297.21,391.85,297.21z M390.89,330c-8.36,0-8.38,13,0,13     C399.25,343,399.27,330,390.89,330z M393.78,362.79c-8.36,0-8.38,13,0,13C402.15,375.79,402.16,362.79,393.78,362.79z      M389.92,397.5c-8.36,0-8.38,13,0,13C398.29,410.5,398.3,397.5,389.92,397.5z M168.29,333.03c-0.26-0.81-0.71-1.5-1.34-2.09     c-0.44-0.34-0.88-0.68-1.32-1.02c-1.01-0.59-2.11-0.88-3.28-0.89l-1.73,0.23c-1.1,0.31-2.06,0.87-2.87,1.67     c-0.32,0.32-0.64,0.64-0.96,0.96c-0.63,0.59-1.08,1.29-1.34,2.09c-0.41,0.77-0.59,1.61-0.56,2.5c-0.03,0.89,0.15,1.73,0.56,2.5     c0.26,0.81,0.71,1.5,1.34,2.09c0.44,0.34,0.88,0.68,1.32,1.02c1.01,0.59,2.11,0.88,3.28,0.89l1.73-0.23     c1.1-0.31,2.06-0.87,2.87-1.67c0.32-0.32,0.64-0.64,0.96-0.96c0.63-0.59,1.08-1.29,1.34-2.09c0.41-0.77,0.59-1.61,0.56-2.5     C168.89,334.64,168.7,333.81,168.29,333.03z M160.42,361.82c-8.36,0-8.38,13,0,13C168.79,374.82,168.8,361.82,160.42,361.82z      M157.53,401.36c-8.36,0-8.38,13,0,13C165.9,414.36,165.91,401.36,157.53,401.36z M80.39,260.57c-8.36,0-8.38,13,0,13     C88.75,273.57,88.77,260.57,80.39,260.57z M112.81,261.54h-0.6c-8.36,0-8.38,13,0,13h0.6     C121.17,274.54,121.18,261.54,112.81,261.54z M242.39,266.36c-8.36,0-8.38,13,0,13C250.75,279.36,250.77,266.36,242.39,266.36z      M212.49,265.39c-8.36,0-8.38,13,0,13C220.86,278.39,220.87,265.39,212.49,265.39z M86.17,339.64c-8.36,0-8.38,13,0,13     C94.54,352.64,94.55,339.64,86.17,339.64z M129.57,341.57c-8.36,0-8.38,13,0,13C137.93,354.57,137.94,341.57,129.57,341.57z      M204.78,348.32c-8.36,0-8.38,13,0,13C213.15,361.32,213.16,348.32,204.78,348.32z M250.1,349.29c-8.36,0-8.38,13,0,13     C258.47,362.29,258.48,349.29,250.1,349.29z M314.71,346.39c-8.36,0-8.38,13,0,13C323.07,359.39,323.09,346.39,314.71,346.39z      M354.24,344.46c-8.36,0-8.38,13,0,13C362.61,357.46,362.62,344.46,354.24,344.46z M424.64,340.61c-8.36,0-8.38,13,0,13     C433,353.61,433.02,340.61,424.64,340.61z"/></g><g><g><path class="st6" d="M134.39,138.61c-9.67,0-9.65-15,0-15C144.06,123.61,144.04,138.61,134.39,138.61z M112.21,140.18      c-3.22,0-3.22,5,0,5C115.43,145.18,115.43,140.18,112.21,140.18z M254.92,114.07c-5.79,0-5.8,9,0,9      C260.71,123.07,260.72,114.07,254.92,114.07z M235.64,123.32c-2.57,0-2.58,4,0,4C238.21,127.32,238.22,123.32,235.64,123.32z       M77.49,287.14c-6.43,0-6.45,10,0,10C83.93,297.14,83.94,287.14,77.49,287.14z M71.71,304.18c-0.64,0-0.64,1,0,1      C72.35,305.18,72.35,304.18,71.71,304.18z M212.49,296.89c-2.57,0-2.58,4,0,4C215.07,300.89,215.07,296.89,212.49,296.89z"/></g><g class="st104"><path class="st6" d="M436.21,252.36c-8.38,0-8.36-13,0-13C444.59,239.36,444.57,252.36,436.21,252.36z M433.32,223.11      c-3.22,0-3.22,5,0,5C436.53,228.11,436.54,223.11,433.32,223.11z M439.1,380.25c-4.5,0-4.51,7,0,7      C443.61,387.25,443.61,380.25,439.1,380.25z M307.96,391.75c-7.08,0-7.09,11,0,11C315.04,402.75,315.05,391.75,307.96,391.75z       M303.14,373.54c-3.22,0-3.22,5,0,5C306.35,378.54,306.36,373.54,303.14,373.54z"/></g></g></g></g></svg>