<svg width="25" height="25" viewBox="0 0 25 25" fill="none" xmlns="http://www.w3.org/2000/svg">
<path fill-rule="evenodd" clip-rule="evenodd" d="M5.82519 7.23396C5.91983 7.11077 6.06634 7.03857 6.22168 7.03857H20.2217C20.377 7.03857 20.5235 7.11077 20.6182 7.23396C20.7128 7.35714 20.7448 7.51731 20.7048 7.66741L18.7048 15.1674C18.6464 15.3863 18.4482 15.5386 18.2217 15.5386H8.22168C7.99516 15.5386 7.79693 15.3863 7.73857 15.1674L5.73857 7.66741C5.69854 7.51731 5.73055 7.35714 5.82519 7.23396ZM6.87249 8.03857L8.60582 14.5386H17.8375L19.5709 8.03857H6.87249Z" fill="black"/>
<path fill-rule="evenodd" clip-rule="evenodd" d="M3.22168 5.03857H5.72168C5.95111 5.03857 6.15111 5.19472 6.20675 5.41731L6.70675 7.41731L5.73661 7.65984L5.33129 6.03857H3.22168V5.03857Z" fill="black"/>
<path fill-rule="evenodd" clip-rule="evenodd" d="M8.72168 18.0386C8.16939 18.0386 7.72168 18.4863 7.72168 19.0386C7.72168 19.5909 8.16939 20.0386 8.72168 20.0386C9.27396 20.0386 9.72168 19.5909 9.72168 19.0386C9.72168 18.4863 9.27396 18.0386 8.72168 18.0386ZM6.72168 19.0386C6.72168 17.934 7.61711 17.0386 8.72168 17.0386C9.82625 17.0386 10.7217 17.934 10.7217 19.0386C10.7217 20.1431 9.82625 21.0386 8.72168 21.0386C7.61711 21.0386 6.72168 20.1431 6.72168 19.0386Z" fill="black"/>
<path fill-rule="evenodd" clip-rule="evenodd" d="M17.7217 18.0386C17.1694 18.0386 16.7217 18.4863 16.7217 19.0386C16.7217 19.5909 17.1694 20.0386 17.7217 20.0386C18.274 20.0386 18.7217 19.5909 18.7217 19.0386C18.7217 18.4863 18.274 18.0386 17.7217 18.0386ZM15.7217 19.0386C15.7217 17.934 16.6171 17.0386 17.7217 17.0386C18.8262 17.0386 19.7217 17.934 19.7217 19.0386C19.7217 20.1431 18.8262 21.0386 17.7217 21.0386C16.6171 21.0386 15.7217 20.1431 15.7217 19.0386Z" fill="black"/>
</svg>
