<svg width="38" height="38" viewBox="0 0 38 38" fill="none" xmlns="http://www.w3.org/2000/svg">
<path d="M4.75 9.50008H7.91667M7.91667 9.50008H33.25M7.91667 9.50008V31.6667C7.91667 32.5066 8.2503 33.3121 8.84416 33.9059C9.43803 34.4998 10.2435 34.8334 11.0833 34.8334H26.9167C27.7565 34.8334 28.562 34.4998 29.1558 33.9059C29.7497 33.3121 30.0833 32.5066 30.0833 31.6667V9.50008M12.6667 9.50008V6.33341C12.6667 5.49356 13.0003 4.68811 13.5942 4.09424C14.188 3.50038 14.9935 3.16675 15.8333 3.16675H22.1667C23.0065 3.16675 23.812 3.50038 24.4058 4.09424C24.9997 4.68811 25.3333 5.49356 25.3333 6.33341V9.50008M15.8333 17.4167V26.9167M22.1667 17.4167V26.9167" stroke="#1E1E1E" stroke-width="2" stroke-linecap="round" stroke-linejoin="round"/>
</svg>
