<svg width="31" height="30" viewBox="0 0 31 30" fill="none" xmlns="http://www.w3.org/2000/svg">
<path d="M4.55078 7.5H7.06972M7.06972 7.5H27.2212M7.06972 7.5V25C7.06972 25.663 7.33511 26.2989 7.8075 26.7678C8.27989 27.2366 8.9206 27.5 9.58866 27.5H22.1834C22.8514 27.5 23.4921 27.2366 23.9645 26.7678C24.4369 26.2989 24.7023 25.663 24.7023 25V7.5M10.8481 7.5V5C10.8481 4.33696 11.1135 3.70107 11.5859 3.23223C12.0583 2.76339 12.699 2.5 13.3671 2.5H18.4049C19.073 2.5 19.7137 2.76339 20.1861 3.23223C20.6585 3.70107 20.9239 4.33696 20.9239 5V7.5M13.3671 13.75V21.25M18.4049 13.75V21.25" stroke="#1E1E1E" stroke-width="2" stroke-linecap="round" stroke-linejoin="round"/>
</svg>
