<svg width="31" height="30" viewBox="0 0 31 30" fill="none" xmlns="http://www.w3.org/2000/svg">
<path d="M13.8538 5.00028H5.03749C4.36943 5.00028 3.72873 5.26367 3.25633 5.73252C2.78394 6.20136 2.51855 6.83724 2.51855 7.50028V25.0003C2.51855 25.6633 2.78394 26.2992 3.25633 26.768C3.72873 27.2369 4.36943 27.5003 5.03749 27.5003H22.6701C23.3381 27.5003 23.9788 27.2369 24.4512 26.768C24.9236 26.2992 25.189 25.6633 25.189 25.0003V16.2503M23.2998 3.12528C23.8009 2.628 24.4804 2.34863 25.189 2.34863C25.8976 2.34863 26.5772 2.628 27.0782 3.12528C27.5793 3.62256 27.8607 4.29702 27.8607 5.00028C27.8607 5.70354 27.5793 6.378 27.0782 6.87528L15.1133 18.7503L10.0754 20.0003L11.3348 15.0003L23.2998 3.12528Z" stroke="#1E1E1E" stroke-width="2" stroke-linecap="round" stroke-linejoin="round"/>
</svg>
