<svg width="25" height="25" viewBox="0 0 25 25" fill="none" xmlns="http://www.w3.org/2000/svg">
<path d="M5.22168 10.4584C5.22168 9.87459 5.47681 9.3199 5.9201 8.93993L10.9201 4.65422C11.6691 4.01223 12.7743 4.01223 13.5233 4.65422L18.5233 8.93993C18.9666 9.3199 19.2217 9.87459 19.2217 10.4584V19.5386C19.2217 20.6431 18.3262 21.5386 17.2217 21.5386H15.2217H9.22168H7.22168C6.11711 21.5386 5.22168 20.6431 5.22168 19.5386V10.4584Z" stroke="black" stroke-linejoin="round"/>
<path d="M2.72168 11.5386L10.9334 4.62344C11.6779 3.99653 12.7655 3.99653 13.51 4.62343L21.7217 11.5386" stroke="black" stroke-linejoin="round"/>
<path d="M9.72168 19.5386V15.5386C9.72168 14.434 10.6171 13.5386 11.7217 13.5386H12.7217C13.8262 13.5386 14.7217 14.434 14.7217 15.5386V19.5386" stroke="black" stroke-linejoin="round"/>
</svg>
